# xmcd
#
# Track frame offsets: 
#        150
#        42834
#        64335
#        90520
#        124507
#        149937
#        179454
#        193412
#        236178
#
# Disc length: 3441 seconds
#
# Revision: 0
# Processed by: cddbd v1.5.2PL0 Copyright (c) Steve Scherf et al.
# Submitted via: ExactAudioCopy v1.0b1
#
DISCID=8c0d6f09
DTITLE=Albert Collins and Barrelhouse - Live
DYEAR=1995
DGENRE=Texas Blues
TTITLE0=Frosty
TTITLE1=Honey Hush
TTITLE2=I've Got a Mind to Travel
TTITLE3=Don't Lose Your Cool
TTITLE4=Blue River Rising
TTITLE5=Cock It on the Wall
TTITLE6=Conversation With Collins
TTITLE7=Keep Your Business Straight
TTITLE8=Things I Used to Do
EXTD=
EXTT0=
EXTT1=
EXTT2=
EXTT3=
EXTT4=
EXTT5=
EXTT6=
EXTT7=
EXTT8=
PLAYORDER=
